<svg width="32" height="32" viewBox="0 0 32 32" fill="none" xmlns="http://www.w3.org/2000/svg">
<g clip-path="url(#clip0_632_288)">
<path d="M15.999 0.200195C24.711 0.200195 31.7988 7.28802 31.7988 16C31.7988 24.712 24.711 31.7998 15.999 31.7998C7.28704 31.7998 0.199219 24.712 0.199219 16C0.199219 7.28802 7.28704 0.200195 15.999 0.200195ZM15.999 1.2998C7.89325 1.2998 1.29883 7.89423 1.29883 16C1.29883 24.1058 7.89325 30.7002 15.999 30.7002C24.1048 30.7002 30.6992 24.1058 30.6992 16C30.6992 7.89423 24.1048 1.2998 15.999 1.2998ZM23.5186 9.60645C24.4139 9.60646 25.1426 10.3351 25.1426 11.2305V20.7695C25.1426 21.6649 24.414 22.3935 23.5186 22.3936H8.47949C7.58402 22.3936 6.85547 21.665 6.85547 20.7695V11.2305C6.85549 10.3351 7.58408 9.60645 8.47949 9.60645H23.5186ZM16.3408 17.3682C16.2408 17.4477 16.1201 17.4873 15.999 17.4873C15.8781 17.4873 15.7574 17.4476 15.6572 17.3682L7.95508 11.252V20.7695L7.96582 20.8721C7.98596 20.9726 8.03491 21.066 8.1084 21.1396C8.20664 21.2379 8.34056 21.2938 8.47949 21.2939H23.5186L23.6211 21.2832C23.7219 21.263 23.8149 21.2134 23.8887 21.1396C23.9624 21.0659 24.012 20.9728 24.0322 20.8721L24.043 20.7695V11.252L16.3408 17.3682ZM9.03613 10.7061L15.999 16.2354L22.9609 10.7061H9.03613Z" fill="#001D00"/>
</g>
<defs>
<clipPath id="clip0_632_288">
<rect width="32" height="32" fill="white"/>
</clipPath>
</defs>
</svg>
